<mxfile host="app.diagrams.net" agent="Mozilla/5.0 (Windows NT 10.0; Win64; x64) AppleWebKit/537.36 (KHTML, like Gecko) Chrome/138.0.0.0 Safari/537.36" version="28.0.4">
  <diagram name="페이지-1" id="PJUB4DCfNSMjKCikpA3S">
    <mxGraphModel dx="1501" dy="782" grid="1" gridSize="10" guides="1" tooltips="1" connect="1" arrows="1" fold="1" page="1" pageScale="1" pageWidth="827" pageHeight="1169" math="0" shadow="0">
      <root>
        <mxCell id="0" />
        <mxCell id="1" parent="0" />
        <mxCell id="dfCfTl-7OxLYL89z0dLb-70" value="" style="rounded=0;whiteSpace=wrap;html=1;strokeColor=light-dark(#000000,#FF2759);" vertex="1" parent="1">
          <mxGeometry x="110" y="140" width="390" height="50" as="geometry" />
        </mxCell>
        <mxCell id="dfCfTl-7OxLYL89z0dLb-1" value="" style="endArrow=classic;html=1;rounded=0;exitX=1;exitY=0;exitDx=0;exitDy=0;entryX=0;entryY=0.25;entryDx=0;entryDy=0;edgeStyle=orthogonalEdgeStyle;" edge="1" parent="1" source="dfCfTl-7OxLYL89z0dLb-21" target="dfCfTl-7OxLYL89z0dLb-12">
          <mxGeometry width="50" height="50" relative="1" as="geometry">
            <mxPoint x="319" y="323" as="sourcePoint" />
            <mxPoint x="839" y="423" as="targetPoint" />
          </mxGeometry>
        </mxCell>
        <mxCell id="dfCfTl-7OxLYL89z0dLb-2" value="" style="endArrow=block;html=1;rounded=0;entryX=0.5;entryY=1;entryDx=0;entryDy=0;exitX=0.525;exitY=-0.031;exitDx=0;exitDy=0;dashed=1;endFill=0;exitPerimeter=0;" edge="1" parent="1" source="dfCfTl-7OxLYL89z0dLb-3" target="dfCfTl-7OxLYL89z0dLb-12">
          <mxGeometry width="50" height="50" relative="1" as="geometry">
            <mxPoint x="409" y="333" as="sourcePoint" />
            <mxPoint x="694" y="453" as="targetPoint" />
          </mxGeometry>
        </mxCell>
        <mxCell id="dfCfTl-7OxLYL89z0dLb-4" style="edgeStyle=orthogonalEdgeStyle;rounded=0;orthogonalLoop=1;jettySize=auto;html=1;entryX=0.5;entryY=0;entryDx=0;entryDy=0;" edge="1" parent="1" source="dfCfTl-7OxLYL89z0dLb-6" target="dfCfTl-7OxLYL89z0dLb-25">
          <mxGeometry relative="1" as="geometry" />
        </mxCell>
        <mxCell id="dfCfTl-7OxLYL89z0dLb-5" style="edgeStyle=orthogonalEdgeStyle;rounded=0;orthogonalLoop=1;jettySize=auto;html=1;entryX=0.5;entryY=0;entryDx=0;entryDy=0;" edge="1" parent="1" source="dfCfTl-7OxLYL89z0dLb-6" target="dfCfTl-7OxLYL89z0dLb-36">
          <mxGeometry relative="1" as="geometry" />
        </mxCell>
        <mxCell id="dfCfTl-7OxLYL89z0dLb-10" value="" style="group" vertex="1" connectable="0" parent="1">
          <mxGeometry x="706" y="100" width="410" height="164.63" as="geometry" />
        </mxCell>
        <mxCell id="dfCfTl-7OxLYL89z0dLb-11" value="&amp;lt;&amp;lt;interface&amp;gt;&amp;gt;&amp;nbsp;&lt;div&gt;GameMemberService&amp;nbsp;&lt;/div&gt;" style="swimlane;fontStyle=0;childLayout=stackLayout;horizontal=1;startSize=30;horizontalStack=0;resizeParent=1;resizeParentMax=0;resizeLast=0;collapsible=1;marginBottom=0;whiteSpace=wrap;html=1;container=0;" vertex="1" parent="dfCfTl-7OxLYL89z0dLb-10">
          <mxGeometry x="61" width="339" height="50" as="geometry">
            <mxRectangle x="100" y="80" width="140" height="30" as="alternateBounds" />
          </mxGeometry>
        </mxCell>
        <mxCell id="dfCfTl-7OxLYL89z0dLb-12" value="&lt;div&gt;&amp;nbsp; + getDiscountWishlist(userName: String): List&amp;lt;GameLikeVO&amp;gt;&lt;/div&gt;&lt;div&gt;&amp;nbsp; + insertVisitorLog(userId: Long): void&lt;/div&gt;&lt;div&gt;&amp;nbsp; + updateUserProfile(userVO: UserVO): boolean&lt;/div&gt;&lt;div&gt;&amp;nbsp; + getUserInfo(userId: Long): UserVO&lt;/div&gt;" style="rounded=0;whiteSpace=wrap;html=1;align=left;container=0;" vertex="1" parent="dfCfTl-7OxLYL89z0dLb-10">
          <mxGeometry x="61" y="50" width="339" height="80" as="geometry" />
        </mxCell>
        <mxCell id="dfCfTl-7OxLYL89z0dLb-20" value="" style="group" vertex="1" connectable="0" parent="1">
          <mxGeometry x="130" y="90" width="370" height="210" as="geometry" />
        </mxCell>
        <mxCell id="dfCfTl-7OxLYL89z0dLb-21" value="&lt;div&gt;&amp;nbsp; + checkStatus(gameId: Long, user: CustomUserDetails): ResponseEntity&amp;lt;Map&amp;lt;String, Boolean&amp;gt;&amp;gt;&lt;/div&gt;&lt;div&gt;&amp;nbsp; + logVisitor(user: CustomUserDetails): ResponseEntity&amp;lt;?&amp;gt;&lt;/div&gt;&lt;div&gt;&amp;nbsp; + getUserProfile(user: CustomUserDetails): ResponseEntity&amp;lt;?&amp;gt;&lt;/div&gt;&lt;div&gt;&amp;nbsp; + updateUserProfile(updatedVO: UserVO): ResponseEntity&amp;lt;?&amp;gt;&lt;/div&gt;&lt;div&gt;&amp;nbsp; + getProfileImages(req: HttpServletRequest): ResponseEntity&amp;lt;List&amp;lt;String&amp;gt;&amp;gt;&lt;/div&gt;" style="rounded=0;whiteSpace=wrap;html=1;align=left;container=0;" vertex="1" parent="dfCfTl-7OxLYL89z0dLb-20">
          <mxGeometry y="103.05473684210527" width="350" height="106.94526315789476" as="geometry" />
        </mxCell>
        <mxCell id="dfCfTl-7OxLYL89z0dLb-22" value="GameMemberController&amp;nbsp;" style="swimlane;fontStyle=0;childLayout=stackLayout;horizontal=1;startSize=30;horizontalStack=0;resizeParent=1;resizeParentMax=0;resizeLast=0;collapsible=1;marginBottom=0;whiteSpace=wrap;html=1;container=0;" vertex="1" parent="dfCfTl-7OxLYL89z0dLb-20">
          <mxGeometry width="350" height="103.05473684210529" as="geometry">
            <mxRectangle x="100" y="80" width="140" height="30" as="alternateBounds" />
          </mxGeometry>
        </mxCell>
        <mxCell id="dfCfTl-7OxLYL89z0dLb-23" value="&lt;div&gt;&amp;nbsp; - gameMemberService: GameMemberService&lt;/div&gt;&lt;div&gt;&amp;nbsp; - gameCartService: GameCartService&lt;/div&gt;&lt;div&gt;&amp;nbsp; - gameLikeService: GameLikeService&lt;/div&gt;&lt;div&gt;&amp;nbsp; - gameDiscountService: GameDiscountService&lt;/div&gt;" style="text;strokeColor=none;fillColor=none;align=left;verticalAlign=middle;spacingLeft=4;spacingRight=4;overflow=hidden;points=[[0,0.5],[1,0.5]];portConstraint=eastwest;rotatable=0;whiteSpace=wrap;html=1;container=0;" vertex="1" parent="dfCfTl-7OxLYL89z0dLb-20">
          <mxGeometry y="35.103157894736846" width="350" height="64.37052631578948" as="geometry" />
        </mxCell>
        <mxCell id="dfCfTl-7OxLYL89z0dLb-24" value="" style="group" vertex="1" connectable="0" parent="1">
          <mxGeometry x="600" y="539" width="220" height="120" as="geometry" />
        </mxCell>
        <mxCell id="dfCfTl-7OxLYL89z0dLb-25" value="&lt;div&gt;&amp;lt;&amp;lt;interface&amp;gt;&amp;gt;&lt;/div&gt;GameMemberMapper&amp;nbsp;" style="swimlane;fontStyle=0;childLayout=stackLayout;horizontal=1;startSize=30;horizontalStack=0;resizeParent=1;resizeParentMax=0;resizeLast=0;collapsible=1;marginBottom=0;whiteSpace=wrap;html=1;container=0;" vertex="1" parent="dfCfTl-7OxLYL89z0dLb-24">
          <mxGeometry width="220" height="50" as="geometry">
            <mxRectangle x="100" y="80" width="140" height="30" as="alternateBounds" />
          </mxGeometry>
        </mxCell>
        <mxCell id="dfCfTl-7OxLYL89z0dLb-26" value="&amp;nbsp; + getDiscountWishlist(paramMap: Map&amp;lt;String, Object&amp;gt;): void" style="rounded=0;whiteSpace=wrap;html=1;align=left;container=0;" vertex="1" parent="dfCfTl-7OxLYL89z0dLb-24">
          <mxGeometry y="50" width="220" height="60" as="geometry" />
        </mxCell>
        <mxCell id="dfCfTl-7OxLYL89z0dLb-35" value="" style="group" vertex="1" connectable="0" parent="1">
          <mxGeometry x="850" y="540" width="300" height="220" as="geometry" />
        </mxCell>
        <mxCell id="dfCfTl-7OxLYL89z0dLb-36" value="&lt;div&gt;&amp;lt;&amp;lt;interface&amp;gt;&amp;gt;&lt;/div&gt;ChartMapper&amp;nbsp;" style="swimlane;fontStyle=0;childLayout=stackLayout;horizontal=1;startSize=30;horizontalStack=0;resizeParent=1;resizeParentMax=0;resizeLast=0;collapsible=1;marginBottom=0;whiteSpace=wrap;html=1;container=0;" vertex="1" parent="dfCfTl-7OxLYL89z0dLb-35">
          <mxGeometry width="220" height="50" as="geometry">
            <mxRectangle x="100" y="80" width="140" height="30" as="alternateBounds" />
          </mxGeometry>
        </mxCell>
        <mxCell id="dfCfTl-7OxLYL89z0dLb-37" value="&lt;div&gt;&amp;nbsp; + insertVisitorLog(userId: Long): void&lt;/div&gt;&lt;div&gt;&amp;nbsp; + getWeeklyVisitors(): List&amp;lt;ChartVO&amp;gt;&lt;/div&gt;&lt;div&gt;&amp;nbsp; + getTotalWeeklyVisitors(): int&lt;/div&gt;&lt;div&gt;&amp;nbsp; + getAllVisitors(): int&lt;/div&gt;&lt;div&gt;&amp;nbsp; + getWeeklySignups(): List&amp;lt;ChartVO&amp;gt;&lt;/div&gt;&lt;div&gt;&amp;nbsp; + getTodayRevenue(): double&lt;/div&gt;&lt;div&gt;&amp;nbsp; + getWeeklyRevenue(): List&amp;lt;ChartVO&amp;gt;&lt;/div&gt;" style="rounded=0;whiteSpace=wrap;html=1;align=left;container=0;" vertex="1" parent="dfCfTl-7OxLYL89z0dLb-35">
          <mxGeometry y="50" width="220" height="110" as="geometry" />
        </mxCell>
        <mxCell id="dfCfTl-7OxLYL89z0dLb-46" style="edgeStyle=orthogonalEdgeStyle;rounded=0;orthogonalLoop=1;jettySize=auto;html=1;entryX=0.5;entryY=0;entryDx=0;entryDy=0;" edge="1" parent="1" source="dfCfTl-7OxLYL89z0dLb-21" target="dfCfTl-7OxLYL89z0dLb-15">
          <mxGeometry relative="1" as="geometry" />
        </mxCell>
        <mxCell id="dfCfTl-7OxLYL89z0dLb-52" value="&lt;div&gt;&amp;lt;&amp;lt;interface&amp;gt;&amp;gt;&lt;/div&gt;UserMapper&amp;nbsp;" style="swimlane;fontStyle=0;childLayout=stackLayout;horizontal=1;startSize=30;horizontalStack=0;resizeParent=1;resizeParentMax=0;resizeLast=0;collapsible=1;marginBottom=0;whiteSpace=wrap;html=1;container=0;" vertex="1" parent="1">
          <mxGeometry x="1110" y="540" width="310" height="50" as="geometry">
            <mxRectangle x="100" y="80" width="140" height="30" as="alternateBounds" />
          </mxGeometry>
        </mxCell>
        <mxCell id="dfCfTl-7OxLYL89z0dLb-53" value="&lt;div&gt;&amp;nbsp; + findUserById(userId: Long): UserVO&lt;/div&gt;&lt;div&gt;&amp;nbsp; + updateUserProfile(userVO: UserVO): int&lt;/div&gt;&lt;div&gt;&amp;nbsp; + findAllUsers(): List&amp;lt;UserVO&amp;gt;&lt;/div&gt;&lt;div&gt;&amp;nbsp; + insertUser(user: User): void&lt;/div&gt;&lt;div&gt;&amp;nbsp; + findRoleIdByName(roleName: String): Long&lt;/div&gt;&lt;div&gt;&amp;nbsp; + findCurrentRoleIdByUserId(userId: Long): Long&lt;/div&gt;&lt;div&gt;&amp;nbsp; + updateUserRoleById(userId: Long, roleId: Long): void&lt;/div&gt;&lt;div&gt;&amp;nbsp; + toggleUserStatus(userId: Long): void&lt;/div&gt;" style="rounded=0;whiteSpace=wrap;html=1;align=left;container=0;" vertex="1" parent="1">
          <mxGeometry x="1110" y="590" width="310" height="130" as="geometry" />
        </mxCell>
        <mxCell id="dfCfTl-7OxLYL89z0dLb-60" value="" style="group" vertex="1" connectable="0" parent="1">
          <mxGeometry x="290" y="515.6800000000001" width="270" height="200" as="geometry" />
        </mxCell>
        <mxCell id="dfCfTl-7OxLYL89z0dLb-57" value="CustomUserDetails&amp;nbsp;" style="swimlane;fontStyle=0;childLayout=stackLayout;horizontal=1;startSize=30;horizontalStack=0;resizeParent=1;resizeParentMax=0;resizeLast=0;collapsible=1;marginBottom=0;whiteSpace=wrap;html=1;container=0;" vertex="1" parent="dfCfTl-7OxLYL89z0dLb-60">
          <mxGeometry width="270" height="60" as="geometry">
            <mxRectangle x="100" y="80" width="140" height="30" as="alternateBounds" />
          </mxGeometry>
        </mxCell>
        <mxCell id="dfCfTl-7OxLYL89z0dLb-64" style="edgeStyle=orthogonalEdgeStyle;rounded=0;orthogonalLoop=1;jettySize=auto;html=1;" edge="1" parent="dfCfTl-7OxLYL89z0dLb-60" source="dfCfTl-7OxLYL89z0dLb-58">
          <mxGeometry relative="1" as="geometry">
            <mxPoint x="135" y="254.31999999999994" as="targetPoint" />
          </mxGeometry>
        </mxCell>
        <mxCell id="dfCfTl-7OxLYL89z0dLb-58" value="&lt;div&gt;&amp;nbsp; + getAuthorities(): Collection&amp;lt;GrantedAuthority&amp;gt;&lt;/div&gt;&lt;div&gt;&amp;nbsp; + getPassword(): String&lt;/div&gt;&lt;div&gt;&amp;nbsp; + getUsername(): String&lt;/div&gt;&lt;div&gt;&amp;nbsp; + isAccountNonExpired(): boolean&lt;/div&gt;&lt;div&gt;&amp;nbsp; + isAccountNonLocked(): boolean&lt;/div&gt;&lt;div&gt;&amp;nbsp; + isCredentialsNonExpired(): boolean&lt;/div&gt;&lt;div&gt;&amp;nbsp; + isEnabled(): boolean&lt;/div&gt;&lt;div&gt;&amp;nbsp; + equals(obj: Object): boolean&lt;/div&gt;&lt;div&gt;&amp;nbsp; + hashCode(): int&lt;/div&gt;" style="rounded=0;whiteSpace=wrap;html=1;align=left;container=0;" vertex="1" parent="dfCfTl-7OxLYL89z0dLb-60">
          <mxGeometry y="60" width="270" height="140" as="geometry" />
        </mxCell>
        <mxCell id="dfCfTl-7OxLYL89z0dLb-61" value="" style="group" vertex="1" connectable="0" parent="1">
          <mxGeometry x="1190" y="110" width="195.31" height="150" as="geometry" />
        </mxCell>
        <mxCell id="dfCfTl-7OxLYL89z0dLb-41" value="GameLikeVO" style="swimlane;fontStyle=0;childLayout=stackLayout;horizontal=1;startSize=30;horizontalStack=0;resizeParent=1;resizeParentMax=0;resizeLast=0;collapsible=1;marginBottom=0;whiteSpace=wrap;html=1;container=0;" vertex="1" parent="dfCfTl-7OxLYL89z0dLb-61">
          <mxGeometry width="195.31" height="130" as="geometry">
            <mxRectangle x="100" y="80" width="140" height="30" as="alternateBounds" />
          </mxGeometry>
        </mxCell>
        <mxCell id="dfCfTl-7OxLYL89z0dLb-42" value="&lt;div&gt;&amp;nbsp; - Long logId&lt;/div&gt;&lt;div&gt;&amp;nbsp; - Long userId&lt;/div&gt;&lt;div&gt;&amp;nbsp; - String userName&lt;/div&gt;&lt;div&gt;&amp;nbsp; - int logType&lt;/div&gt;&lt;div&gt;&amp;nbsp; - Long amount&lt;/div&gt;&lt;div&gt;&amp;nbsp; - LocalDateTime createdAt&lt;/div&gt;" style="text;strokeColor=none;fillColor=none;align=left;verticalAlign=middle;spacingLeft=4;spacingRight=4;overflow=hidden;points=[[0,0.5],[1,0.5]];portConstraint=eastwest;rotatable=0;whiteSpace=wrap;html=1;container=0;" vertex="1" parent="dfCfTl-7OxLYL89z0dLb-61">
          <mxGeometry y="30" width="195.31" height="100" as="geometry" />
        </mxCell>
        <mxCell id="dfCfTl-7OxLYL89z0dLb-43" value="" style="rounded=0;whiteSpace=wrap;html=1;align=left;container=0;" vertex="1" parent="dfCfTl-7OxLYL89z0dLb-61">
          <mxGeometry y="130" width="195.31" height="20" as="geometry" />
        </mxCell>
        <mxCell id="dfCfTl-7OxLYL89z0dLb-62" value="" style="group" vertex="1" connectable="0" parent="1">
          <mxGeometry x="320" y="770" width="200" height="380" as="geometry" />
        </mxCell>
        <mxCell id="dfCfTl-7OxLYL89z0dLb-54" value="User" style="swimlane;fontStyle=0;childLayout=stackLayout;horizontal=1;startSize=30;horizontalStack=0;resizeParent=1;resizeParentMax=0;resizeLast=0;collapsible=1;marginBottom=0;whiteSpace=wrap;html=1;container=0;" vertex="1" parent="dfCfTl-7OxLYL89z0dLb-62">
          <mxGeometry width="200" height="171.36" as="geometry">
            <mxRectangle x="100" y="80" width="140" height="30" as="alternateBounds" />
          </mxGeometry>
        </mxCell>
        <mxCell id="dfCfTl-7OxLYL89z0dLb-55" value="&lt;div&gt;&amp;nbsp; - Long id&lt;/div&gt;&lt;div&gt;&amp;nbsp; - String email&lt;/div&gt;&lt;div&gt;&amp;nbsp; - String username&lt;/div&gt;&lt;div&gt;&amp;nbsp; - String password&lt;/div&gt;&lt;div&gt;&amp;nbsp; - String name&lt;/div&gt;&lt;div&gt;&amp;nbsp; - String birth&lt;/div&gt;&lt;div&gt;&amp;nbsp; - Boolean active&lt;/div&gt;&lt;div&gt;&amp;nbsp; - Boolean isEmailVerified&lt;/div&gt;&lt;div&gt;&amp;nbsp; - Set&amp;lt;Role&amp;gt; roles&lt;/div&gt;" style="text;strokeColor=none;fillColor=none;align=left;verticalAlign=middle;spacingLeft=4;spacingRight=4;overflow=hidden;points=[[0,0.5],[1,0.5]];portConstraint=eastwest;rotatable=0;whiteSpace=wrap;html=1;container=0;" vertex="1" parent="dfCfTl-7OxLYL89z0dLb-62">
          <mxGeometry y="30" width="190" height="141.36" as="geometry" />
        </mxCell>
        <mxCell id="dfCfTl-7OxLYL89z0dLb-56" value="&lt;div&gt;&amp;nbsp; + addRole(role: Role): void&lt;/div&gt;&lt;div&gt;&amp;nbsp; + addRoles(roles: Set&amp;lt;Role&amp;gt;): void&lt;/div&gt;&lt;div&gt;&amp;nbsp; + removeRole(role: Role): void&lt;/div&gt;&lt;div&gt;&amp;nbsp; + markVerificationConfirmed(): void&lt;/div&gt;&lt;div&gt;&amp;nbsp; + getId(): Long&lt;/div&gt;&lt;div&gt;&amp;nbsp; + getUsername(): String&lt;/div&gt;&lt;div&gt;&amp;nbsp; + getPassword(): String&lt;/div&gt;&lt;div&gt;&amp;nbsp; + getName(): String&lt;/div&gt;&lt;div&gt;&amp;nbsp; + getEmail(): String&lt;/div&gt;&lt;div&gt;&amp;nbsp; + getBirth(): String&lt;/div&gt;&lt;div&gt;&amp;nbsp; + getActive(): Boolean&lt;/div&gt;&lt;div&gt;&amp;nbsp; + getEmailVerified(): Boolean&lt;/div&gt;&lt;div&gt;&amp;nbsp; + getRoles(): Set&amp;lt;Role&amp;gt;&lt;/div&gt;" style="rounded=0;whiteSpace=wrap;html=1;align=left;container=0;" vertex="1" parent="dfCfTl-7OxLYL89z0dLb-62">
          <mxGeometry y="171.36" width="200" height="208.64" as="geometry" />
        </mxCell>
        <mxCell id="dfCfTl-7OxLYL89z0dLb-15" value="UserVO&amp;nbsp;" style="swimlane;fontStyle=0;childLayout=stackLayout;horizontal=1;startSize=30;horizontalStack=0;resizeParent=1;resizeParentMax=0;resizeLast=0;collapsible=1;marginBottom=0;whiteSpace=wrap;html=1;container=0;" vertex="1" parent="1">
          <mxGeometry x="40" y="515.68" width="195.31" height="171.36" as="geometry">
            <mxRectangle x="100" y="80" width="140" height="30" as="alternateBounds" />
          </mxGeometry>
        </mxCell>
        <mxCell id="dfCfTl-7OxLYL89z0dLb-16" value="&lt;div&gt;&amp;nbsp; - Long userId&lt;/div&gt;&lt;div&gt;&amp;nbsp; - String username&lt;/div&gt;&lt;div&gt;&amp;nbsp; - String email&lt;/div&gt;&lt;div&gt;&amp;nbsp; - String profileImage&lt;/div&gt;&lt;div&gt;&amp;nbsp; - String birth&lt;/div&gt;&lt;div&gt;&amp;nbsp; - String role&lt;/div&gt;&lt;div&gt;&amp;nbsp; - Boolean active&lt;/div&gt;&lt;div&gt;&amp;nbsp; - Boolean emailActive&lt;/div&gt;&lt;div&gt;&amp;nbsp; - LocalDateTime createdAt&lt;/div&gt;" style="text;strokeColor=none;fillColor=none;align=left;verticalAlign=middle;spacingLeft=4;spacingRight=4;overflow=hidden;points=[[0,0.5],[1,0.5]];portConstraint=eastwest;rotatable=0;whiteSpace=wrap;html=1;container=0;" vertex="1" parent="1">
          <mxGeometry x="40" y="545.68" width="195.31" height="141.36" as="geometry" />
        </mxCell>
        <mxCell id="dfCfTl-7OxLYL89z0dLb-17" value="" style="rounded=0;whiteSpace=wrap;html=1;align=left;container=0;" vertex="1" parent="1">
          <mxGeometry x="40" y="687.04" width="195.31" height="20" as="geometry" />
        </mxCell>
        <mxCell id="dfCfTl-7OxLYL89z0dLb-63" style="edgeStyle=orthogonalEdgeStyle;rounded=0;orthogonalLoop=1;jettySize=auto;html=1;" edge="1" parent="1" source="dfCfTl-7OxLYL89z0dLb-21" target="dfCfTl-7OxLYL89z0dLb-57">
          <mxGeometry relative="1" as="geometry" />
        </mxCell>
        <mxCell id="dfCfTl-7OxLYL89z0dLb-65" value="" style="group" vertex="1" connectable="0" parent="1">
          <mxGeometry x="769" y="280" width="320" height="180" as="geometry" />
        </mxCell>
        <mxCell id="dfCfTl-7OxLYL89z0dLb-3" value="GameMemberServiceImpl&amp;nbsp;" style="swimlane;fontStyle=0;childLayout=stackLayout;horizontal=1;startSize=30;horizontalStack=0;resizeParent=1;resizeParentMax=0;resizeLast=0;collapsible=1;marginBottom=0;whiteSpace=wrap;html=1;container=0;" vertex="1" parent="dfCfTl-7OxLYL89z0dLb-65">
          <mxGeometry width="320" height="97" as="geometry">
            <mxRectangle x="100" y="80" width="140" height="30" as="alternateBounds" />
          </mxGeometry>
        </mxCell>
        <mxCell id="dfCfTl-7OxLYL89z0dLb-6" value="&lt;div&gt;&lt;span style=&quot;background-color: transparent; color: light-dark(rgb(0, 0, 0), rgb(255, 255, 255));&quot;&gt;&amp;nbsp; + getDiscountWishlist(userName: String): List&amp;lt;GameLikeVO&amp;gt;&lt;/span&gt;&lt;/div&gt;&lt;div&gt;&amp;nbsp; + insertVisitorLog(userId: Long): void&lt;/div&gt;&lt;div&gt;&amp;nbsp; + updateUserProfile(userVO: UserVO): boolean&lt;/div&gt;&lt;div&gt;&amp;nbsp; + getUserInfo(userId: Long): UserVO&lt;/div&gt;" style="rounded=0;whiteSpace=wrap;html=1;align=left;container=0;" vertex="1" parent="dfCfTl-7OxLYL89z0dLb-65">
          <mxGeometry y="97" width="320" height="83" as="geometry" />
        </mxCell>
        <mxCell id="dfCfTl-7OxLYL89z0dLb-9" value="&lt;div&gt;&amp;nbsp; - gameMemberMapper: GameMemberMapper&lt;/div&gt;&lt;div&gt;&amp;nbsp; - chartMapper: ChartMapper&lt;/div&gt;&lt;div&gt;&amp;nbsp; - userMapper: UserMapper&lt;/div&gt;" style="text;strokeColor=none;fillColor=none;align=left;verticalAlign=middle;spacingLeft=4;spacingRight=4;overflow=hidden;points=[[0,0.5],[1,0.5]];portConstraint=eastwest;rotatable=0;whiteSpace=wrap;html=1;container=0;" vertex="1" parent="dfCfTl-7OxLYL89z0dLb-65">
          <mxGeometry y="30" width="320" height="67" as="geometry" />
        </mxCell>
        <mxCell id="dfCfTl-7OxLYL89z0dLb-66" style="edgeStyle=orthogonalEdgeStyle;rounded=0;orthogonalLoop=1;jettySize=auto;html=1;entryX=0.5;entryY=0;entryDx=0;entryDy=0;exitX=0.5;exitY=1;exitDx=0;exitDy=0;" edge="1" parent="1" source="dfCfTl-7OxLYL89z0dLb-6" target="dfCfTl-7OxLYL89z0dLb-52">
          <mxGeometry relative="1" as="geometry" />
        </mxCell>
        <mxCell id="dfCfTl-7OxLYL89z0dLb-69" value="" style="edgeStyle=orthogonalEdgeStyle;rounded=0;orthogonalLoop=1;jettySize=auto;html=1;entryX=0;entryY=0.5;entryDx=0;entryDy=0;" edge="1" parent="1" source="dfCfTl-7OxLYL89z0dLb-12" target="dfCfTl-7OxLYL89z0dLb-42">
          <mxGeometry relative="1" as="geometry" />
        </mxCell>
        <mxCell id="dfCfTl-7OxLYL89z0dLb-71" value="상태조회 호출용" style="text;html=1;align=center;verticalAlign=middle;resizable=0;points=[];autosize=1;strokeColor=none;fillColor=none;" vertex="1" parent="1">
          <mxGeometry x="30" y="110" width="100" height="30" as="geometry" />
        </mxCell>
      </root>
    </mxGraphModel>
  </diagram>
</mxfile>
